HIERARCHY
ROOT Hips
{
    OFFSET 0.000000 0.000000 0.000000
    CHANNELS 6 Xposition Yposition Zposition Zrotation Xrotation Yrotation
    JOINT Spine
    {
        OFFSET -0.000000 7.236184 0.000000
        CHANNELS 3 Zrotation Xrotation Yrotation
        JOINT Spine1
        {
            OFFSET -0.000000 20.420147 0.000000
            CHANNELS 3 Zrotation Xrotation Yrotation
            JOINT Neck
            {
                OFFSET -0.000000 20.336288 1.848754
                CHANNELS 3 Zrotation Xrotation Yrotation
                JOINT Head
                {
                    OFFSET -0.000000 12.354461 -1.764923
                    CHANNELS 3 Zrotation Xrotation Yrotation
                    End Site
                    {
                        OFFSET -0.000000 22.061537 0.000000
                    }
                }
            }
            JOINT LeftShoulder
            {
                OFFSET 3.573296 18.396038 -0.314103
                CHANNELS 3 Zrotation Xrotation Yrotation
                JOINT LeftArm
                {
                    OFFSET 10.880760 0.000000 0.000000
                    CHANNELS 3 Zrotation Xrotation Yrotation
                    JOINT LeftForeArm
                    {
                        OFFSET 27.185530 0.000000 0.000000
                        CHANNELS 3 Zrotation Xrotation Yrotation
                        JOINT LeftHand
                        {
                            OFFSET 27.825975 0.000000 0.000000
                            CHANNELS 3 Zrotation Xrotation Yrotation
                            End Site
                            {
                                OFFSET 13.236923 0.000000 0.000000
                            }
                        }
                    }
                }
            }
            JOINT RightShoulder
            {
                OFFSET -3.474926 18.396038 -0.314103
                CHANNELS 3 Zrotation Xrotation Yrotation
                JOINT RightArm
                {
                    OFFSET -10.880760 0.000000 0.000000
                    CHANNELS 3 Zrotation Xrotation Yrotation
                    JOINT RightForeArm
                    {
                        OFFSET -27.185530 0.000000 0.000000
                        CHANNELS 3 Zrotation Xrotation Yrotation
                        JOINT RightHand
                        {
                            OFFSET -27.825975 0.000000 0.000000
                            CHANNELS 3 Zrotation Xrotation Yrotation
                            End Site
                            {
                                OFFSET -13.236923 0.000000 0.000000
                            }
                        }
                    }
                }
            }
        }
    }
    JOINT LeftUpLeg
    {
        OFFSET 8.824615 0.000000 0.000000
        CHANNELS 3 Zrotation Xrotation Yrotation
        JOINT LeftLeg
        {
            OFFSET -0.000000 -35.111282 0.000000
            CHANNELS 3 Zrotation Xrotation Yrotation
            JOINT LeftFoot
            {
                OFFSET -0.000000 -42.324711 0.000000
                CHANNELS 3 Zrotation Xrotation Yrotation
                JOINT LeftToeBase
                {
                    OFFSET -0.000000 -5.735999 13.236923
                    CHANNELS 3 Zrotation Xrotation Yrotation
                    End Site
                    {
                        OFFSET -0.000000 0.000000 3.529846
                    }
                }
            }
        }
    }
    JOINT RightUpLeg
    {
        OFFSET -8.824615 0.000000 0.000000
        CHANNELS 3 Zrotation Xrotation Yrotation
        JOINT RightLeg
        {
            OFFSET -0.000000 -35.111282 0.000000
            CHANNELS 3 Zrotation Xrotation Yrotation
            JOINT RightFoot
            {
                OFFSET -0.000000 -42.324711 0.000000
                CHANNELS 3 Zrotation Xrotation Yrotation
                JOINT RightToeBase
                {
                    OFFSET -0.000000 -5.735999 13.236923
                    CHANNELS 3 Zrotation Xrotation Yrotation
                    End Site
                    {
                        OFFSET -0.000000 0.000000 3.529846
                    }
                }
            }
        }
    }
}
MOTION
Frames:    10
Frame Time:    0.008333
-7.694948    83.923653    102.011871    1.736478    -6.913508    -178.812607    -4.566830    -14.434451    -0.163898    2.239326    7.118076    0.275588    2.266701    7.393713    -8.220023    10.568723    -2.460829    -7.020006    -1.149743    17.608185    1.749888    -58.080704    31.656000    -26.519995    -1.665586    -4.512091    -8.042390    17.871037    -4.264242    2.325390    8.539288    17.877428    -8.461324    46.791615    41.110569    31.325865    -2.927073    -10.695011    18.342731    -15.423903    -9.638663    -4.432449    2.387318    -18.282564    -6.379924    1.790547    27.165472    8.056436    -1.485416    -13.024708    -12.241030    -1.768738    -0.942862    1.963909    -8.601698    -4.587506    -4.196793    2.152297    3.899612    -0.173251    8.057449    -3.511377    -7.616682    -0.243884    0.786871    0.263497    
-7.956356    83.958122    102.033249    1.716789    -6.927196    -179.107239    -4.694812    -14.321445    -0.218741    2.341552    7.025680    0.227714    2.366083    7.296239    -8.233357    10.780649    -2.473200    -7.008419    -1.067046    17.614779    1.631020    -58.287106    31.593260    -26.259300    -1.685025    -4.401884    -8.072669    17.873005    -4.161424    2.289382    8.549006    17.814301    -8.573042    46.889221    40.933540    31.145243    -2.846681    -10.618777    18.150251    -15.653125    -9.575268    -4.400265    2.326861    -18.153664    -6.182570    1.679244    26.973177    8.163726    -1.394033    -13.006648    -12.203338    -1.687254    -0.916095    1.873344    -8.937901    -5.505683    -3.952855    2.292868    5.262501    -0.281065    8.455792    -3.173136    -7.543602    -0.262606    0.262904    0.283926    
-8.215247    83.993660    102.055634    1.697972    -6.941053    -179.405090    -4.819482    -14.210661    -0.273505    2.443703    6.935851    0.179484    2.468459    7.204592    -8.241775    10.983697    -2.489238    -6.993047    -0.987512    17.620806    1.514827    -58.482010    31.539921    -26.006559    -1.706333    -4.296340    -8.104692    17.875025    -4.062943    2.256362    8.559085    17.754410    -8.681624    46.977089    40.754311    30.973074    -2.769560    -10.546309    17.959106    -15.874201    -9.514722    -4.372342    2.269469    -18.023951    -5.986494    1.566459    26.776276    8.273271    -1.304562    -12.985938    -12.164351    -1.606080    -0.889297    1.783132    -9.268248    -6.430021    -3.710822    2.440282    6.626037    -0.400493    8.859307    -2.817134    -7.459435    -0.282483    -0.257721    0.305636    
-8.471912    84.031548    102.080154    1.681248    -6.955729    -179.711517    -4.937349    -14.100814    -0.328640    2.545498    6.846970    0.130095    2.573148    7.116896    -8.241699    11.174974    -2.505257    -6.970945    -0.912250    17.625551    1.403303    -58.660355    31.503738    -25.765245    -1.729999    -4.197683    -8.137733    17.876295    -3.971301    2.225237    8.568434    17.699261    -8.785400    47.057774    40.570751    30.809601    -2.696085    -10.478346    17.767746    -16.081575    -9.458047    -4.347575    2.218446    -17.890926    -5.790982    1.449439    26.569370    8.389678    -1.217899    -12.960282    -12.123152    -1.524989    -0.862001    1.693020    -9.598282    -7.369913    -3.464635    2.604315    7.998345    -0.542948    9.275380    -2.425991    -7.355737    -0.302396    -0.783537    0.327420    
-8.725227    84.072586    102.107529    1.668488    -6.971816    179.971252    -5.044489    -13.991588    -0.384297    2.646728    6.757968    0.079128    2.678779    7.032788    -8.230310    11.351225    -2.518412    -6.939888    -0.843191    17.628681    1.298199    -58.816307    31.491133    -25.539772    -1.756668    -4.108294    -8.170770    17.875954    -3.888901    2.195826    8.576121    17.649372    -8.881966    47.133682    40.382298    30.653894    -2.626663    -10.415876    17.576237    -16.269848    -9.406507    -4.325239    2.177386    -17.753435    -5.596966    1.326527    26.349161    8.516820    -1.134758    -12.927896    -12.079754    -1.444428    -0.834627    1.603505    -9.930264    -8.328456    -3.214005    2.792445    9.378976    -0.714334    9.708080    -1.987629    -7.227599    -0.321745    -1.317371    0.348630    
-8.970142    84.116592    102.137627    1.662040    -6.989609    179.647644    -5.135857    -13.884924    -0.439165    2.745954    6.669647    0.026594    2.782861    6.953147    -8.206065    11.506694    -2.526305    -6.899183    -0.781908    17.630285    1.202643    -58.944511    31.505707    -25.337339    -1.786435    -4.030543    -8.202219    17.872198    -3.818124    2.168521    8.581296    17.605986    -8.968989    47.205387    40.192108    30.507523    -2.562315    -10.360356    17.388947    -16.433155    -9.361567    -4.304791    2.150017    -17.613115    -5.408118    1.199222    26.117128    8.655303    -1.056111    -12.888230    -12.035614    -1.366415    -0.807678    1.516827    -10.260213    -9.291321    -2.965399    3.007298    10.743649    -0.911732    10.153299    -1.501999    -7.077831    -0.340212    -1.848537    0.368917    
-9.223319    84.167084    102.172783    1.663576    -7.011180    179.294830    -5.215371    -13.773791    -0.497648    2.850998    6.575068    -0.031236    2.891757    6.872672    -8.166063    11.650858    -2.527870    -6.845093    -0.724644    17.631208    1.110641    -59.051544    31.551184    -25.146946    -1.821587    -3.959700    -8.233812    17.863049    -3.754578    2.142311    8.583996    17.566191    -9.052300    47.278870    39.986237    30.359159    -2.497549    -10.307926    17.193480    -16.581373    -9.320481    -4.283825    2.136902    -17.460039    -5.211647    1.058434    25.855282    8.817102    -0.974717    -12.837977    -11.988516    -1.285916    -0.778887    1.427394    -10.612030    -10.328809    -2.708287    3.268281    12.188122    -1.145489    10.645350    -0.929377    -6.898365    -0.359227    -2.410033    0.389847    
-9.472757    84.222397    102.211723    1.675564    -7.036519    178.928177    -5.276436    -13.663463    -0.557910    2.958464    6.477672    -0.092068    2.999938    6.794965    -8.110257    11.774200    -2.521510    -6.778730    -0.674622    17.632668    1.028467    -59.128677    31.628937    -24.982885    -1.861356    -3.899548    -8.263203    17.846926    -3.701625    2.119360    8.583205    17.532373    -9.128005    47.352444    39.772770    30.214306    -2.434619    -10.260891    16.999905    -16.705063    -9.285379    -4.261848    2.141581    -17.300528    -5.016373    0.910629    25.572481    8.997297    -0.892755    -12.778222    -11.941892    -1.207052    -0.749309    1.339782    -10.971691    -11.398368    -2.463267    3.569765    13.648502    -1.400952    11.166757    -0.288277    -6.700779    -0.377785    -2.969973    0.410318    
-9.720504    84.283058    102.254547    1.699385    -7.066379    178.546066    -5.318787    -13.553535    -0.622605    3.070049    6.376371    -0.155083    3.107507    6.720301    -8.038272    11.878597    -2.506814    -6.699434    -0.630940    17.636213    0.955770    -59.175903    31.738611    -24.846498    -1.906266    -3.848761    -8.290631    17.822447    -3.657882    2.100835    8.578873    17.504530    -9.197100    47.428509    39.548229    30.069679    -2.371677    -10.217658    16.807381    -16.805559    -9.255106    -4.237418    2.164704    -17.133245    -4.820318    0.755842    25.265671    9.197911    -0.808698    -12.708508    -11.897708    -1.129811    -0.717980    1.253977    -11.343290    -12.510377    -2.239623    3.915285    15.137596    -1.673038    11.724020    0.425417    -6.490043    -0.395512    -3.522565    0.429917    
-9.965448    84.348724    102.300766    1.735421    -7.101084    178.152069    -5.342887    -13.444783    -0.683489    3.188245    6.270925    -0.228872    3.212212    6.649099    -7.950975    11.965248    -2.484012    -6.607710    -0.594202    17.642401    0.893302    -59.193134    31.878183    -24.739437    -1.955749    -3.806516    -8.316999    17.788328    -3.622266    2.088292    8.570153    17.483109    -9.260602    47.508591    39.312038    29.924425    -2.307899    -10.176411    16.617596    -16.883696    -9.228042    -4.209807    2.205446    -16.959007    -4.623383    0.597267    24.935612    9.418302    -0.723354    -12.628800    -11.860176    -1.055155    -0.685814    1.171049    -11.726825    -13.660382    -2.050172    4.303431    16.648558    -1.954618    12.316236    1.204411    -6.274927    -0.411093    -4.052606    0.447202    
